Coordinates
version=1
nRows=21
nColumns=22
inDegrees=yes

Units are S.I. units (second, meters, Newtons, ...)
If the header above contains a line with 'inDegrees', this indicates whether rotational values are in degrees (yes) or radians (no).

endheader
time	pelvis_tilt	pelvis_list	pelvis_rotation	pelvis_tx	pelvis_ty	pelvis_tz	hip_flexion_r	hip_adduction_r	hip_rotation_r	knee_angle_r	ankle_angle_r	subtalar_angle_r	hip_flexion_l	hip_adduction_l	hip_rotation_l	knee_angle_l	ankle_angle_l	subtalar_angle_l	lumbar_extension	lumbar_bending	lumbar_rotation
      4.13000000	     -7.46700326	     -3.30921018	      3.22047141	     -0.76919751	      0.95493575	     -0.22814592	      3.72512933	      4.27194115	     -5.25454256	    -20.59811433	     18.22415656	      2.71132182	     26.65082222	     -1.40087344	      8.69113670	    -17.57978702	      8.50007017	     -3.51723328	     -0.02974267	      2.14186119	      0.46557351
      4.14000000	     -7.60280781	     -3.33839326	      3.21399866	     -0.77557424	      0.95504781	     -0.22643599	      4.06369809	      4.40702473	     -5.37087736	    -20.22279229	     18.29336952	      2.37907275	     26.78783499	     -1.54611331	      8.73386266	    -16.92180872	      9.04277181	     -3.45817303	     -0.06378673	      2.23828300	      0.43802166
      4.15000000	     -7.72527483	     -3.41920459	      3.21969161	     -0.78182775	      0.95527745	     -0.22478568	      4.39511717	      4.58587777	     -5.45414581	    -19.86701220	     18.32756059	      2.21857872	     26.87570836	     -1.74689748	      8.75677604	    -16.21354591	      9.60947844	     -3.42352085	     -0.09748293	      2.39542967	      0.40699706
      4.16000000	     -7.86270227	     -3.53519228	      3.24510803	     -0.78793795	      0.95560466	     -0.22320963	      4.74910867	      4.79109556	     -5.53643803	    -19.52779140	     18.24905094	      2.05670558	     26.95244765	     -1.97898806	      8.75122871	    -15.47731898	     10.15744645	     -3.33986717	     -0.09422682	      2.58896840	      0.35612018
      4.17000000	     -7.99136991	     -3.67679076	      3.28478930	     -0.79387028	      0.95604515	     -0.22171731	      5.10325555	      5.01389943	     -5.62007836	    -19.21692319	     18.10447371	      1.93666982	     27.00191383	     -2.23575117	      8.68414269	    -14.74407758	     10.67233505	     -3.23314560	     -0.07914428	      2.81086734	      0.29424861
      4.18000000	     -8.10821841	     -3.83789738	      3.34108237	     -0.79960804	      0.95659736	     -0.22032858	      5.45222531	      5.24853631	     -5.70968103	    -18.93254322	     17.90035284	      1.85203683	     27.03828371	     -2.50546929	      8.53752340	    -14.05979962	     11.11299073	     -3.10869481	     -0.05404504	      3.05692081	      0.21468237
      4.19000000	     -8.22956991	     -3.99683158	      3.42796820	     -0.80516197	      0.95721114	     -0.21906696	      5.82450063	      5.46889351	     -5.83561753	    -18.69610569	     17.65773011	      1.70097386	     27.10557348	     -2.75346037	      8.30387381	    -13.48901194	     11.48364616	     -2.85114215	     -0.00074543	      3.29751504	      0.09703973
      4.20000000	     -8.30293926	     -4.14780505	      3.51707742	     -0.81047328	      0.95797537	     -0.21790487	      6.13999394	      5.68011488	     -5.92979826	    -18.47078701	     17.37138468	      1.65819182	     27.12896605	     -2.98948484	      7.96321911	    -13.02903723	     11.68516157	     -2.73009449	      0.02291205	      3.53231462	     -0.01523430
      4.21000000	     -8.32738673	     -4.23170552	      3.63537934	     -0.81552862	      0.95886555	     -0.21690788	      6.40633775	      5.80812231	     -6.06545710	    -18.28298386	     17.06868289	      1.67030294	     27.11751815	     -3.13753796	      7.51875484	    -12.72720931	     11.68987357	     -2.69816836	      0.01445658	      3.69221165	     -0.16150600
      4.22000000	     -8.37299205	     -4.34902562	      3.76430362	     -0.82042510	      0.95972507	     -0.21597806	      6.69501245	      5.97938367	     -6.14257497	    -18.10541486	     16.75315344	      1.58600786	     27.19798073	     -3.29892689	      7.03753883	    -12.66500561	     11.62753019	     -2.57882095	      0.05285036	      3.88322181	     -0.32438040
      4.23000000	     -8.32701831	     -4.36004319	      3.93672282	     -0.82505651	      0.96072272	     -0.21525811	      6.88780928	      6.02256022	     -6.30104773	    -17.97349601	     16.47276005	      1.57292240	     27.18771775	     -3.32858172	      6.52836307	    -12.77972007	     11.37092644	     -2.54767760	      0.00542481	      3.96216508	     -0.53014453
      4.24000000	     -8.31604950	     -4.35795167	      4.11363707	     -0.82954047	      0.96164297	     -0.21461783	      7.12977184	      6.05095672	     -6.44706607	    -17.87788570	     16.14218289	      1.37362388	     27.25519064	     -3.32852206	      6.05349013	    -13.11364976	     11.07529193	     -2.46263438	      0.01379202	      4.02126135	     -0.75294974
      4.25000000	     -8.20449462	     -4.31597624	      4.30802555	     -0.83378528	      0.96266928	     -0.21407956	      7.23596649	      6.04185812	     -6.58006429	    -17.76789988	     15.90400807	      1.33457924	     27.21402417	     -3.28278639	      5.66145130	    -13.60505277	     10.66668136	     -2.44076748	     -0.07864471	      4.03903754	     -0.97153984
      4.26000000	     -8.08971985	     -4.25300688	      4.55255186	     -0.83791119	      0.96362928	     -0.21368079	      7.35013732	      6.00075734	     -6.78836233	    -17.69312311	     15.64243954	      1.01791362	     27.18328006	     -3.17871476	      5.48770935	    -14.25741610	     10.26399728	     -2.40004767	     -0.16485401	      4.03260603	     -1.25921295
      4.27000000	     -7.93539788	     -4.16349759	      4.76606669	     -0.84185001	      0.96459944	     -0.21330964	      7.40783572	      5.93278553	     -6.95423533	    -17.62103826	     15.38749034	      0.88876276	     27.08690176	     -3.05837520	      5.42090809	    -15.01985307	      9.92687825	     -2.37042697	     -0.28862242	      3.99952812	     -1.49175130
      4.28000000	     -7.76424169	     -4.07828381	      4.98905020	     -0.84565847	      0.96552310	     -0.21298101	      7.43922271	      5.86852185	     -7.12373236	    -17.55203259	     15.17210129	      0.73436834	     26.95623441	     -2.92781131	      5.56665496	    -15.87412778	      9.64694918	     -2.31340679	     -0.42472985	      3.96775177	     -1.73948006
      4.29000000	     -7.58191424	     -3.99235703	      5.19520188	     -0.84933621	      0.96639729	     -0.21268469	      7.45421217	      5.80082866	     -7.28131673	    -17.49352018	     14.97426658	      0.59671937	     26.78602038	     -2.79099992	      5.88159324	    -16.79739959	      9.47541817	     -2.22926458	     -0.56714702	      3.93754395	     -1.96098240
      4.30000000	     -7.39747791	     -3.91991189	      5.38683709	     -0.85289775	      0.96721395	     -0.21238920	      7.45696128	      5.75015045	     -7.40311004	    -17.43078040	     14.77151149	      0.40509209	     26.58406994	     -2.66255713	      6.35840348	    -17.76882574	      9.40793114	     -2.05475692	     -0.70547575	      3.91845443	     -2.18425527
      4.31000000	     -7.20342999	     -3.84534235	      5.54225690	     -0.85630314	      0.96796985	     -0.21213189	      7.45356852	      5.68527747	     -7.55073342	    -17.39896680	     14.62240445	      0.32464928	     26.34034861	     -2.53556800	      6.90859244	    -18.78860785	      9.46127773	     -1.92772665	     -0.84460010	      3.90322667	     -2.33578680
      4.32000000	     -7.01474232	     -3.79182374	      5.67679425	     -0.85959675	      0.96867301	     -0.21186241	      7.44525956	      5.64825066	     -7.63931899	    -17.35852445	     14.43937915	      0.21352557	     26.06980048	     -2.43125457	      7.54621544	    -19.82781942	      9.58530776	     -1.68465907	     -0.96892694	      3.90772482	     -2.50292554
      4.33000000	     -6.82396527	     -3.74829350	      5.76541609	     -0.86273169	      0.96930048	     -0.21157433	      7.43614088	      5.61674525	     -7.73785732	    -17.34069688	     14.32241633	      0.15278632	     25.77279620	     -2.35555352	      8.16763175	    -20.90351967	      9.80943535	     -1.51084306	     -1.08334764	      3.92078838	     -2.57958035
